<svg width="22" height="22" viewBox="0 0 22 22" fill="none" xmlns="http://www.w3.org/2000/svg">
<path d="M4.18767 12.2091C5.28866 13.3101 6.62556 13.8606 8.1984 13.8606C9.77123 13.8606 11.1081 13.3101 12.2091 12.2091C13.3101 11.1081 13.8606 9.77122 13.8606 8.19839C13.8606 6.62556 13.3101 5.28865 12.2091 4.18767C11.1081 3.08668 9.77123 2.53619 8.1984 2.53619C6.62556 2.53619 5.28866 3.08668 4.18767 4.18767C3.08669 5.28865 2.5362 6.62556 2.5362 8.19839C2.5362 9.77122 3.08669 11.1081 4.18767 12.2091ZM15.748 13.8606L22 20.1126L20.1126 22L13.8606 15.748V14.7453L13.5067 14.3914C12.0125 15.689 10.2431 16.3378 8.1984 16.3378C5.91779 16.3378 3.97141 15.5514 2.35925 13.9786C0.786421 12.4057 4.7999e-06 10.479 4.7999e-06 8.19839C4.7999e-06 5.91778 0.786421 3.99106 2.35925 2.41823C3.97141 0.806077 5.91779 0 8.1984 0C10.479 0 12.4057 0.806077 13.9786 2.41823C15.5514 3.99106 16.3378 5.91778 16.3378 8.19839C16.3378 9.02413 16.1412 9.96783 15.748 11.0295C15.3548 12.0518 14.9026 12.8776 14.3914 13.5067L14.7453 13.8606H15.748Z" fill="#999999"/>
</svg>
