<svg width="20" height="24" viewBox="0 0 20 24" fill="none" xmlns="http://www.w3.org/2000/svg">
<path d="M9.75686 21.4699C7.17152 21.4699 4.58621 21.0594 2.13405 20.2383C1.20201 19.9165 0.491882 19.2618 0.181201 18.4075C-0.140576 17.5531 -0.0296183 16.61 0.480786 15.7667L1.7568 13.6474C2.02309 13.2036 2.2672 12.3159 2.2672 11.7944V8.58777C2.2672 4.46015 5.62921 1.09814 9.75686 1.09814C13.8845 1.09814 17.2465 4.46015 17.2465 8.58777V11.7944C17.2465 12.3048 17.4906 13.2036 17.7569 13.6585L19.0218 15.7667C19.4989 16.5656 19.5877 17.5309 19.2659 18.4075C18.9441 19.284 18.2451 19.9498 17.3685 20.2383C14.9275 21.0594 12.3422 21.4699 9.75686 21.4699ZM9.75686 2.76251C6.55016 2.76251 3.93156 5.37 3.93156 8.58777V11.7944C3.93156 12.6044 3.59869 13.8027 3.18815 14.5018L1.91214 16.6211C1.66803 17.0316 1.60146 17.4643 1.7457 17.8305C1.87885 18.2078 2.21172 18.4962 2.66665 18.6516C7.30467 20.205 12.2201 20.205 16.8581 18.6516C17.2576 18.5184 17.5683 18.2189 17.7125 17.8194C17.8568 17.42 17.8235 16.9872 17.6015 16.6211L16.3255 14.5018C15.9039 13.7806 15.5821 12.5933 15.5821 11.7833V8.58777C15.5821 5.37 12.9746 2.76251 9.75686 2.76251Z" fill="#999999"/>
<path d="M11.8204 3.06242C11.7427 3.06242 11.665 3.05133 11.5874 3.02914C11.2656 2.94037 10.9549 2.8738 10.6553 2.82941C9.71217 2.70736 8.80232 2.77394 7.94795 3.02914C7.63727 3.129 7.30443 3.02914 7.09361 2.79613C6.88279 2.56312 6.81622 2.23024 6.93827 1.93066C7.39319 0.765606 8.50274 0 9.76765 0C11.0326 0 12.1421 0.754511 12.5971 1.93066C12.708 2.23024 12.6525 2.56312 12.4417 2.79613C12.2753 2.97366 12.0423 3.06242 11.8204 3.06242Z" fill="#999999"/>
<path d="M9.75645 24C8.65797 24 7.59278 23.5562 6.81611 22.7795C6.03941 22.0028 5.59558 20.9376 5.59558 19.8391H7.25994C7.25994 20.4938 7.52621 21.1373 7.99223 21.6033C8.45825 22.0694 9.1018 22.3357 9.75645 22.3357C11.1323 22.3357 12.253 21.215 12.253 19.8391H13.9174C13.9174 22.1359 12.0533 24 9.75645 24Z" fill="#999999"/>
</svg>
